# xmcd
#
# Track frame offsets: 
#        150
#        16634
#        34325
#        52135
#        70499
#        99153
#        137973
#        178830
#        220303
#        254517
#        287606
#
# Disc length: 4228 seconds
#
# Revision: 1
# Processed by: cddbd v1.5.1PL2 Copyright (c) Steve Scherf et al.
# Submitted via: ExactAudioCopy v0.95b3
#
DISCID=a710820b
DTITLE=Rachel Panay - I Still Believe [US]
DYEAR=2005
DGENRE=Club
TTITLE0=I Still Believe [JH's Original Edit]
TTITLE1=I Still Believe [Georgie Filtered Radio Anthem]
TTITLE2=I Still Believe [Friscia And Lamboy's Radio]
TTITLE3=I Still Believe [Mike Cruz's Tribal Radio]
TTITLE4=I Still Believe [JH's Original Extended]
TTITLE5=I Still Believe [Georgie's Filtered Anthem]
TTITLE6=I Still Believe [Friscia And Lamboy's Club]
TTITLE7=I Still Believe [Mike Cruz's Tribal Club]
TTITLE8=I Still Believe [JH's Summer House Mix]
TTITLE9=I Still Believe [The House Of Harris Gospel Mix]
TTITLE10=I Still Believe [JH's Miami Freedom Mix]
EXTD=
EXTT0=
EXTT1=
EXTT2=
EXTT3=
EXTT4=
EXTT5=
EXTT6=
EXTT7=
EXTT8=
EXTT9=
EXTT10=
PLAYORDER=
